<svg width="123" height="223" viewBox="0 0 123 223" fill="none" xmlns="http://www.w3.org/2000/svg">
<ellipse cx="33.9387" cy="3.90787" rx="2.20959" ry="3.48527" transform="rotate(13.6278 33.9387 3.90787)" fill="#26FFCB" fill-opacity="0.36"/>
<ellipse cx="28.7771" cy="25.1983" rx="2.20959" ry="3.48527" transform="rotate(13.6278 28.7771 25.1983)" fill="#26FFCB" fill-opacity="0.36"/>
<ellipse cx="31.3579" cy="14.5531" rx="2.20959" ry="3.48527" transform="rotate(13.6278 31.3579 14.5531)" fill="#26FFCB" fill-opacity="0.36"/>
<ellipse cx="26.1962" cy="35.8438" rx="2.20959" ry="3.48527" transform="rotate(13.6278 26.1962 35.8438)" fill="#26FFCB" fill-opacity="0.36"/>
<ellipse cx="23.6153" cy="46.4892" rx="2.20959" ry="3.48527" transform="rotate(13.6278 23.6153 46.4892)" fill="#26FFCB" fill-opacity="0.36"/>
<ellipse cx="21.0345" cy="57.1344" rx="2.20959" ry="3.48527" transform="rotate(13.6278 21.0345 57.1344)" fill="#26FFCB" fill-opacity="0.36"/>
<ellipse cx="18.4537" cy="67.7796" rx="2.20959" ry="3.48527" transform="rotate(13.6278 18.4537 67.7796)" fill="#26FFCB" fill-opacity="0.36"/>
<ellipse cx="15.8728" cy="78.4252" rx="2.20959" ry="3.48527" transform="rotate(13.6278 15.8728 78.4252)" fill="#26FFCB" fill-opacity="0.36"/>
<ellipse cx="13.292" cy="89.0702" rx="2.20959" ry="3.48527" transform="rotate(13.6278 13.292 89.0702)" fill="#26FFCB" fill-opacity="0.36"/>
<ellipse cx="10.7112" cy="99.7156" rx="2.20959" ry="3.48527" transform="rotate(13.6278 10.7112 99.7156)" fill="#26FFCB" fill-opacity="0.36"/>
<ellipse cx="8.13037" cy="110.361" rx="2.20959" ry="3.48527" transform="rotate(13.6278 8.13037 110.361)" fill="#26FFCB" fill-opacity="0.36"/>
<ellipse cx="5.54944" cy="121.006" rx="2.20959" ry="3.48527" transform="rotate(13.6278 5.54944 121.006)" fill="#26FFCB" fill-opacity="0.36"/>
<ellipse cx="2.96863" cy="131.652" rx="2.20959" ry="3.48527" transform="rotate(13.6278 2.96863 131.652)" fill="#26FFCB" fill-opacity="0.36"/>
<ellipse cx="41.9147" cy="5.84135" rx="2.20959" ry="3.48527" transform="rotate(13.6278 41.9147 5.84135)" fill="#26FFCB" fill-opacity="0.36"/>
<ellipse cx="36.753" cy="27.1322" rx="2.20959" ry="3.48527" transform="rotate(13.6278 36.753 27.1322)" fill="#26FFCB" fill-opacity="0.36"/>
<ellipse cx="39.3338" cy="16.4869" rx="2.20959" ry="3.48527" transform="rotate(13.6278 39.3338 16.4869)" fill="#26FFCB" fill-opacity="0.36"/>
<ellipse cx="34.1722" cy="37.7775" rx="2.20959" ry="3.48527" transform="rotate(13.6278 34.1722 37.7775)" fill="#26FFCB" fill-opacity="0.36"/>
<ellipse cx="31.5913" cy="48.4229" rx="2.20959" ry="3.48527" transform="rotate(13.6278 31.5913 48.4229)" fill="#26FFCB" fill-opacity="0.36"/>
<ellipse cx="29.0105" cy="59.0682" rx="2.20959" ry="3.48527" transform="rotate(13.6278 29.0105 59.0682)" fill="#26FFCB" fill-opacity="0.36"/>
<ellipse cx="26.4297" cy="69.7133" rx="2.20959" ry="3.48527" transform="rotate(13.6278 26.4297 69.7133)" fill="#26FFCB" fill-opacity="0.36"/>
<ellipse cx="23.8488" cy="80.3588" rx="2.20959" ry="3.48527" transform="rotate(13.6278 23.8488 80.3588)" fill="#26FFCB" fill-opacity="0.36"/>
<ellipse cx="21.268" cy="91.0039" rx="2.20959" ry="3.48527" transform="rotate(13.6278 21.268 91.0039)" fill="#26FFCB" fill-opacity="0.36"/>
<ellipse cx="18.6871" cy="101.649" rx="2.20959" ry="3.48527" transform="rotate(13.6278 18.6871 101.649)" fill="#26FFCB" fill-opacity="0.36"/>
<ellipse cx="16.1064" cy="112.295" rx="2.20959" ry="3.48527" transform="rotate(13.6278 16.1064 112.295)" fill="#26FFCB" fill-opacity="0.36"/>
<ellipse cx="13.5255" cy="122.94" rx="2.20959" ry="3.48527" transform="rotate(13.6278 13.5255 122.94)" fill="#26FFCB" fill-opacity="0.36"/>
<ellipse cx="10.9447" cy="133.585" rx="2.20959" ry="3.48527" transform="rotate(13.6278 10.9447 133.585)" fill="#26FFCB" fill-opacity="0.36"/>
<ellipse cx="49.8906" cy="7.77531" rx="2.20959" ry="3.48527" transform="rotate(13.6278 49.8906 7.77531)" fill="#26FFCB" fill-opacity="0.36"/>
<ellipse cx="44.729" cy="29.0658" rx="2.20959" ry="3.48527" transform="rotate(13.6278 44.729 29.0658)" fill="#26FFCB" fill-opacity="0.36"/>
<ellipse cx="47.3098" cy="18.4207" rx="2.20959" ry="3.48527" transform="rotate(13.6278 47.3098 18.4207)" fill="#26FFCB" fill-opacity="0.36"/>
<ellipse cx="42.1482" cy="39.7111" rx="2.20959" ry="3.48527" transform="rotate(13.6278 42.1482 39.7111)" fill="#26FFCB" fill-opacity="0.36"/>
<ellipse cx="39.5673" cy="50.3566" rx="2.20959" ry="3.48527" transform="rotate(13.6278 39.5673 50.3566)" fill="#26FFCB" fill-opacity="0.36"/>
<ellipse cx="36.9865" cy="61.0019" rx="2.20959" ry="3.48527" transform="rotate(13.6278 36.9865 61.0019)" fill="#26FFCB" fill-opacity="0.36"/>
<ellipse cx="34.4056" cy="71.6473" rx="2.20959" ry="3.48527" transform="rotate(13.6278 34.4056 71.6473)" fill="#26FFCB" fill-opacity="0.36"/>
<ellipse cx="31.8248" cy="82.2923" rx="2.20959" ry="3.48527" transform="rotate(13.6278 31.8248 82.2923)" fill="#26FFCB" fill-opacity="0.36"/>
<ellipse cx="29.244" cy="92.9377" rx="2.20959" ry="3.48527" transform="rotate(13.6278 29.244 92.9377)" fill="#26FFCB" fill-opacity="0.36"/>
<ellipse cx="26.6631" cy="103.583" rx="2.20959" ry="3.48527" transform="rotate(13.6278 26.6631 103.583)" fill="#26FFCB" fill-opacity="0.36"/>
<ellipse cx="24.0823" cy="114.228" rx="2.20959" ry="3.48527" transform="rotate(13.6278 24.0823 114.228)" fill="#26FFCB" fill-opacity="0.36"/>
<ellipse cx="21.5015" cy="124.874" rx="2.20959" ry="3.48527" transform="rotate(13.6278 21.5015 124.874)" fill="#26FFCB" fill-opacity="0.36"/>
<ellipse cx="18.9207" cy="135.519" rx="2.20959" ry="3.48527" transform="rotate(13.6278 18.9207 135.519)" fill="#26FFCB" fill-opacity="0.36"/>
<ellipse cx="57.8666" cy="9.70878" rx="2.20959" ry="3.48527" transform="rotate(13.6278 57.8666 9.70878)" fill="#26FFCB" fill-opacity="0.36"/>
<ellipse cx="52.705" cy="30.9997" rx="2.20959" ry="3.48527" transform="rotate(13.6278 52.705 30.9997)" fill="#26FFCB" fill-opacity="0.36"/>
<ellipse cx="55.2858" cy="20.3542" rx="2.20959" ry="3.48527" transform="rotate(13.6278 55.2858 20.3542)" fill="#26FFCB" fill-opacity="0.36"/>
<ellipse cx="50.1241" cy="41.6449" rx="2.20959" ry="3.48527" transform="rotate(13.6278 50.1241 41.6449)" fill="#26FFCB" fill-opacity="0.36"/>
<ellipse cx="47.5433" cy="52.2901" rx="2.20959" ry="3.48527" transform="rotate(13.6278 47.5433 52.2901)" fill="#26FFCB" fill-opacity="0.36"/>
<ellipse cx="44.9625" cy="62.9355" rx="2.20959" ry="3.48527" transform="rotate(13.6278 44.9625 62.9355)" fill="#26FFCB" fill-opacity="0.36"/>
<ellipse cx="42.3816" cy="73.581" rx="2.20959" ry="3.48527" transform="rotate(13.6278 42.3816 73.581)" fill="#26FFCB" fill-opacity="0.36"/>
<ellipse cx="39.8008" cy="84.2262" rx="2.20959" ry="3.48527" transform="rotate(13.6278 39.8008 84.2262)" fill="#26FFCB" fill-opacity="0.36"/>
<ellipse cx="37.22" cy="94.8714" rx="2.20959" ry="3.48527" transform="rotate(13.6278 37.22 94.8714)" fill="#26FFCB" fill-opacity="0.36"/>
<ellipse cx="34.6391" cy="105.517" rx="2.20959" ry="3.48527" transform="rotate(13.6278 34.6391 105.517)" fill="#26FFCB" fill-opacity="0.36"/>
<ellipse cx="32.0583" cy="116.162" rx="2.20959" ry="3.48527" transform="rotate(13.6278 32.0583 116.162)" fill="#26FFCB" fill-opacity="0.36"/>
<ellipse cx="29.4774" cy="126.807" rx="2.20959" ry="3.48527" transform="rotate(13.6278 29.4774 126.807)" fill="#26FFCB" fill-opacity="0.36"/>
<ellipse cx="26.8966" cy="137.453" rx="2.20959" ry="3.48527" transform="rotate(13.6278 26.8966 137.453)" fill="#26FFCB" fill-opacity="0.36"/>
<ellipse cx="65.8426" cy="11.6426" rx="2.20959" ry="3.48527" transform="rotate(13.6278 65.8426 11.6426)" fill="#26FFCB" fill-opacity="0.36"/>
<ellipse cx="60.681" cy="32.9333" rx="2.20959" ry="3.48527" transform="rotate(13.6278 60.681 32.9333)" fill="#26FFCB" fill-opacity="0.36"/>
<ellipse cx="63.2618" cy="22.2881" rx="2.20959" ry="3.48527" transform="rotate(13.6278 63.2618 22.2881)" fill="#26FFCB" fill-opacity="0.36"/>
<ellipse cx="58.1001" cy="43.5785" rx="2.20959" ry="3.48527" transform="rotate(13.6278 58.1001 43.5785)" fill="#26FFCB" fill-opacity="0.36"/>
<ellipse cx="55.5193" cy="54.224" rx="2.20959" ry="3.48527" transform="rotate(13.6278 55.5193 54.224)" fill="#26FFCB" fill-opacity="0.36"/>
<ellipse cx="52.9384" cy="64.8693" rx="2.20959" ry="3.48527" transform="rotate(13.6278 52.9384 64.8693)" fill="#26FFCB" fill-opacity="0.36"/>
<ellipse cx="50.3576" cy="75.5143" rx="2.20959" ry="3.48527" transform="rotate(13.6278 50.3576 75.5143)" fill="#26FFCB" fill-opacity="0.36"/>
<ellipse cx="47.7767" cy="86.1597" rx="2.20959" ry="3.48527" transform="rotate(13.6278 47.7767 86.1597)" fill="#26FFCB" fill-opacity="0.36"/>
<ellipse cx="45.196" cy="96.805" rx="2.20959" ry="3.48527" transform="rotate(13.6278 45.196 96.805)" fill="#26FFCB" fill-opacity="0.36"/>
<ellipse cx="42.6151" cy="107.45" rx="2.20959" ry="3.48527" transform="rotate(13.6278 42.6151 107.45)" fill="#26FFCB" fill-opacity="0.36"/>
<ellipse cx="40.0343" cy="118.096" rx="2.20959" ry="3.48527" transform="rotate(13.6278 40.0343 118.096)" fill="#26FFCB" fill-opacity="0.36"/>
<ellipse cx="37.4535" cy="128.741" rx="2.20959" ry="3.48527" transform="rotate(13.6278 37.4535 128.741)" fill="#26FFCB" fill-opacity="0.36"/>
<ellipse cx="34.8727" cy="139.386" rx="2.20959" ry="3.48527" transform="rotate(13.6278 34.8727 139.386)" fill="#26FFCB" fill-opacity="0.36"/>
<ellipse cx="73.8186" cy="13.5763" rx="2.20959" ry="3.48527" transform="rotate(13.6278 73.8186 13.5763)" fill="#26FFCB" fill-opacity="0.36"/>
<ellipse cx="68.6569" cy="34.867" rx="2.20959" ry="3.48527" transform="rotate(13.6278 68.6569 34.867)" fill="#26FFCB" fill-opacity="0.36"/>
<ellipse cx="71.2378" cy="24.2216" rx="2.20959" ry="3.48527" transform="rotate(13.6278 71.2378 24.2216)" fill="#26FFCB" fill-opacity="0.36"/>
<ellipse cx="66.0761" cy="45.5125" rx="2.20959" ry="3.48527" transform="rotate(13.6278 66.0761 45.5125)" fill="#26FFCB" fill-opacity="0.36"/>
<ellipse cx="63.4952" cy="56.1576" rx="2.20959" ry="3.48527" transform="rotate(13.6278 63.4952 56.1576)" fill="#26FFCB" fill-opacity="0.36"/>
<ellipse cx="60.9144" cy="66.8029" rx="2.20959" ry="3.48527" transform="rotate(13.6278 60.9144 66.8029)" fill="#26FFCB" fill-opacity="0.36"/>
<ellipse cx="58.3336" cy="77.448" rx="2.20959" ry="3.48527" transform="rotate(13.6278 58.3336 77.448)" fill="#26FFCB" fill-opacity="0.36"/>
<ellipse cx="55.7528" cy="88.0937" rx="2.20959" ry="3.48527" transform="rotate(13.6278 55.7528 88.0937)" fill="#26FFCB" fill-opacity="0.36"/>
<ellipse cx="53.172" cy="98.7387" rx="2.20959" ry="3.48527" transform="rotate(13.6278 53.172 98.7387)" fill="#26FFCB" fill-opacity="0.36"/>
<ellipse cx="50.5911" cy="109.384" rx="2.20959" ry="3.48527" transform="rotate(13.6278 50.5911 109.384)" fill="#26FFCB" fill-opacity="0.36"/>
<ellipse cx="48.0103" cy="120.029" rx="2.20959" ry="3.48527" transform="rotate(13.6278 48.0103 120.029)" fill="#26FFCB" fill-opacity="0.36"/>
<ellipse cx="45.4294" cy="130.675" rx="2.20959" ry="3.48527" transform="rotate(13.6278 45.4294 130.675)" fill="#26FFCB" fill-opacity="0.36"/>
<ellipse cx="42.8486" cy="141.32" rx="2.20959" ry="3.48527" transform="rotate(13.6278 42.8486 141.32)" fill="#26FFCB" fill-opacity="0.36"/>
<ellipse cx="81.7946" cy="15.5098" rx="2.20959" ry="3.48527" transform="rotate(13.6278 81.7946 15.5098)" fill="#26FFCB" fill-opacity="0.36"/>
<ellipse cx="76.6329" cy="36.8006" rx="2.20959" ry="3.48527" transform="rotate(13.6278 76.6329 36.8006)" fill="#26FFCB" fill-opacity="0.36"/>
<ellipse cx="79.2138" cy="26.1552" rx="2.20959" ry="3.48527" transform="rotate(13.6278 79.2138 26.1552)" fill="#26FFCB" fill-opacity="0.36"/>
<ellipse cx="74.0521" cy="47.446" rx="2.20959" ry="3.48527" transform="rotate(13.6278 74.0521 47.446)" fill="#26FFCB" fill-opacity="0.36"/>
<ellipse cx="71.4713" cy="58.0913" rx="2.20959" ry="3.48527" transform="rotate(13.6278 71.4713 58.0913)" fill="#26FFCB" fill-opacity="0.36"/>
<ellipse cx="68.8904" cy="68.7367" rx="2.20959" ry="3.48527" transform="rotate(13.6278 68.8904 68.7367)" fill="#26FFCB" fill-opacity="0.36"/>
<ellipse cx="66.3095" cy="79.382" rx="2.20959" ry="3.48527" transform="rotate(13.6278 66.3095 79.382)" fill="#26FFCB" fill-opacity="0.36"/>
<ellipse cx="63.7287" cy="90.0273" rx="2.20959" ry="3.48527" transform="rotate(13.6278 63.7287 90.0273)" fill="#26FFCB" fill-opacity="0.36"/>
<ellipse cx="61.1479" cy="100.672" rx="2.20959" ry="3.48527" transform="rotate(13.6278 61.1479 100.672)" fill="#26FFCB" fill-opacity="0.36"/>
<ellipse cx="58.567" cy="111.318" rx="2.20959" ry="3.48527" transform="rotate(13.6278 58.567 111.318)" fill="#26FFCB" fill-opacity="0.36"/>
<ellipse cx="55.9862" cy="121.963" rx="2.20959" ry="3.48527" transform="rotate(13.6278 55.9862 121.963)" fill="#26FFCB" fill-opacity="0.36"/>
<ellipse cx="53.4054" cy="132.608" rx="2.20959" ry="3.48527" transform="rotate(13.6278 53.4054 132.608)" fill="#26FFCB" fill-opacity="0.36"/>
<ellipse cx="50.8246" cy="143.254" rx="2.20959" ry="3.48527" transform="rotate(13.6278 50.8246 143.254)" fill="#26FFCB" fill-opacity="0.36"/>
<ellipse cx="89.7706" cy="17.4436" rx="2.20959" ry="3.48527" transform="rotate(13.6278 89.7706 17.4436)" fill="#26FFCB" fill-opacity="0.36"/>
<ellipse cx="84.6089" cy="38.7343" rx="2.20959" ry="3.48527" transform="rotate(13.6278 84.6089 38.7343)" fill="#26FFCB" fill-opacity="0.36"/>
<ellipse cx="87.1897" cy="28.0891" rx="2.20959" ry="3.48527" transform="rotate(13.6278 87.1897 28.0891)" fill="#26FFCB" fill-opacity="0.36"/>
<ellipse cx="82.028" cy="49.3796" rx="2.20959" ry="3.48527" transform="rotate(13.6278 82.028 49.3796)" fill="#26FFCB" fill-opacity="0.36"/>
<ellipse cx="79.4472" cy="60.0248" rx="2.20959" ry="3.48527" transform="rotate(13.6278 79.4472 60.0248)" fill="#26FFCB" fill-opacity="0.36"/>
<ellipse cx="76.8664" cy="70.6703" rx="2.20959" ry="3.48527" transform="rotate(13.6278 76.8664 70.6703)" fill="#26FFCB" fill-opacity="0.36"/>
<ellipse cx="74.2855" cy="81.3157" rx="2.20959" ry="3.48527" transform="rotate(13.6278 74.2855 81.3157)" fill="#26FFCB" fill-opacity="0.36"/>
<ellipse cx="71.7047" cy="91.9607" rx="2.20959" ry="3.48527" transform="rotate(13.6278 71.7047 91.9607)" fill="#26FFCB" fill-opacity="0.36"/>
<ellipse cx="69.1239" cy="102.606" rx="2.20959" ry="3.48527" transform="rotate(13.6278 69.1239 102.606)" fill="#26FFCB" fill-opacity="0.36"/>
<ellipse cx="66.543" cy="113.252" rx="2.20959" ry="3.48527" transform="rotate(13.6278 66.543 113.252)" fill="#26FFCB" fill-opacity="0.36"/>
<ellipse cx="63.9623" cy="123.897" rx="2.20959" ry="3.48527" transform="rotate(13.6278 63.9623 123.897)" fill="#26FFCB" fill-opacity="0.36"/>
<ellipse cx="61.3814" cy="134.542" rx="2.20959" ry="3.48527" transform="rotate(13.6278 61.3814 134.542)" fill="#26FFCB" fill-opacity="0.36"/>
<ellipse cx="58.8005" cy="145.188" rx="2.20959" ry="3.48527" transform="rotate(13.6278 58.8005 145.188)" fill="#26FFCB" fill-opacity="0.36"/>
<ellipse cx="97.7465" cy="19.3772" rx="2.20959" ry="3.48527" transform="rotate(13.6278 97.7465 19.3772)" fill="#26FFCB" fill-opacity="0.36"/>
<ellipse cx="92.5849" cy="40.668" rx="2.20959" ry="3.48527" transform="rotate(13.6278 92.5849 40.668)" fill="#26FFCB" fill-opacity="0.36"/>
<ellipse cx="95.1657" cy="30.0226" rx="2.20959" ry="3.48527" transform="rotate(13.6278 95.1657 30.0226)" fill="#26FFCB" fill-opacity="0.36"/>
<ellipse cx="90.0041" cy="51.3133" rx="2.20959" ry="3.48527" transform="rotate(13.6278 90.0041 51.3133)" fill="#26FFCB" fill-opacity="0.36"/>
<ellipse cx="87.4232" cy="61.9587" rx="2.20959" ry="3.48527" transform="rotate(13.6278 87.4232 61.9587)" fill="#26FFCB" fill-opacity="0.36"/>
<ellipse cx="84.8423" cy="72.6039" rx="2.20959" ry="3.48527" transform="rotate(13.6278 84.8423 72.6039)" fill="#26FFCB" fill-opacity="0.36"/>
<ellipse cx="82.2616" cy="83.2491" rx="2.20959" ry="3.48527" transform="rotate(13.6278 82.2616 83.2491)" fill="#26FFCB" fill-opacity="0.36"/>
<ellipse cx="79.6807" cy="93.8944" rx="2.20959" ry="3.48527" transform="rotate(13.6278 79.6807 93.8944)" fill="#26FFCB" fill-opacity="0.36"/>
<ellipse cx="77.0999" cy="104.54" rx="2.20959" ry="3.48527" transform="rotate(13.6278 77.0999 104.54)" fill="#26FFCB" fill-opacity="0.36"/>
<ellipse cx="74.5191" cy="115.185" rx="2.20959" ry="3.48527" transform="rotate(13.6278 74.5191 115.185)" fill="#26FFCB" fill-opacity="0.36"/>
<ellipse cx="71.9382" cy="125.83" rx="2.20959" ry="3.48527" transform="rotate(13.6278 71.9382 125.83)" fill="#26FFCB" fill-opacity="0.36"/>
<ellipse cx="69.3573" cy="136.476" rx="2.20959" ry="3.48527" transform="rotate(13.6278 69.3573 136.476)" fill="#26FFCB" fill-opacity="0.36"/>
<ellipse cx="66.7765" cy="147.121" rx="2.20959" ry="3.48527" transform="rotate(13.6278 66.7765 147.121)" fill="#26FFCB" fill-opacity="0.36"/>
<ellipse cx="105.723" cy="21.3111" rx="2.20959" ry="3.48527" transform="rotate(13.6278 105.723 21.3111)" fill="#26FFCB" fill-opacity="0.36"/>
<ellipse cx="100.561" cy="42.6017" rx="2.20959" ry="3.48527" transform="rotate(13.6278 100.561 42.6017)" fill="#26FFCB" fill-opacity="0.36"/>
<ellipse cx="103.142" cy="31.9562" rx="2.20959" ry="3.48527" transform="rotate(13.6278 103.142 31.9562)" fill="#26FFCB" fill-opacity="0.36"/>
<ellipse cx="97.98" cy="53.247" rx="2.20959" ry="3.48527" transform="rotate(13.6278 97.98 53.247)" fill="#26FFCB" fill-opacity="0.36"/>
<ellipse cx="95.3992" cy="63.8924" rx="2.20959" ry="3.48527" transform="rotate(13.6278 95.3992 63.8924)" fill="#26FFCB" fill-opacity="0.36"/>
<ellipse cx="92.8184" cy="74.5376" rx="2.20959" ry="3.48527" transform="rotate(13.6278 92.8184 74.5376)" fill="#26FFCB" fill-opacity="0.36"/>
<ellipse cx="90.2375" cy="85.1831" rx="2.20959" ry="3.48527" transform="rotate(13.6278 90.2375 85.1831)" fill="#26FFCB" fill-opacity="0.36"/>
<ellipse cx="87.6566" cy="95.8282" rx="2.20959" ry="3.48527" transform="rotate(13.6278 87.6566 95.8282)" fill="#26FFCB" fill-opacity="0.36"/>
<ellipse cx="85.0758" cy="106.473" rx="2.20959" ry="3.48527" transform="rotate(13.6278 85.0758 106.473)" fill="#26FFCB" fill-opacity="0.36"/>
<ellipse cx="82.495" cy="117.119" rx="2.20959" ry="3.48527" transform="rotate(13.6278 82.495 117.119)" fill="#26FFCB" fill-opacity="0.36"/>
<ellipse cx="79.9142" cy="127.764" rx="2.20959" ry="3.48527" transform="rotate(13.6278 79.9142 127.764)" fill="#26FFCB" fill-opacity="0.36"/>
<ellipse cx="77.3333" cy="138.409" rx="2.20959" ry="3.48527" transform="rotate(13.6278 77.3333 138.409)" fill="#26FFCB" fill-opacity="0.36"/>
<ellipse cx="74.7525" cy="149.055" rx="2.20959" ry="3.48527" transform="rotate(13.6278 74.7525 149.055)" fill="#26FFCB" fill-opacity="0.36"/>
<ellipse cx="113.699" cy="23.2448" rx="2.20959" ry="3.48527" transform="rotate(13.6278 113.699 23.2448)" fill="#26FFCB" fill-opacity="0.36"/>
<ellipse cx="108.537" cy="44.5354" rx="2.20959" ry="3.48527" transform="rotate(13.6278 108.537 44.5354)" fill="#26FFCB" fill-opacity="0.36"/>
<ellipse cx="111.118" cy="33.8902" rx="2.20959" ry="3.48527" transform="rotate(13.6278 111.118 33.8902)" fill="#26FFCB" fill-opacity="0.36"/>
<ellipse cx="105.956" cy="55.1806" rx="2.20959" ry="3.48527" transform="rotate(13.6278 105.956 55.1806)" fill="#26FFCB" fill-opacity="0.36"/>
<ellipse cx="103.375" cy="65.8261" rx="2.20959" ry="3.48527" transform="rotate(13.6278 103.375 65.8261)" fill="#26FFCB" fill-opacity="0.36"/>
<ellipse cx="100.794" cy="76.4714" rx="2.20959" ry="3.48527" transform="rotate(13.6278 100.794 76.4714)" fill="#26FFCB" fill-opacity="0.36"/>
<ellipse cx="98.2135" cy="87.1167" rx="2.20959" ry="3.48527" transform="rotate(13.6278 98.2135 87.1167)" fill="#26FFCB" fill-opacity="0.36"/>
<ellipse cx="95.6326" cy="97.762" rx="2.20959" ry="3.48527" transform="rotate(13.6278 95.6326 97.762)" fill="#26FFCB" fill-opacity="0.36"/>
<ellipse cx="93.0518" cy="108.407" rx="2.20959" ry="3.48527" transform="rotate(13.6278 93.0518 108.407)" fill="#26FFCB" fill-opacity="0.36"/>
<ellipse cx="90.471" cy="119.053" rx="2.20959" ry="3.48527" transform="rotate(13.6278 90.471 119.053)" fill="#26FFCB" fill-opacity="0.36"/>
<ellipse cx="87.8902" cy="129.698" rx="2.20959" ry="3.48527" transform="rotate(13.6278 87.8902 129.698)" fill="#26FFCB" fill-opacity="0.36"/>
<ellipse cx="85.3093" cy="140.343" rx="2.20959" ry="3.48527" transform="rotate(13.6278 85.3093 140.343)" fill="#26FFCB" fill-opacity="0.36"/>
<ellipse cx="82.7285" cy="150.989" rx="2.20959" ry="3.48527" transform="rotate(13.6278 82.7285 150.989)" fill="#26FFCB" fill-opacity="0.36"/>
<ellipse cx="121.674" cy="25.1785" rx="2.20959" ry="3.48527" transform="rotate(13.6278 121.674 25.1785)" fill="#26FFCB" fill-opacity="0.36"/>
<ellipse cx="116.513" cy="46.4692" rx="2.20959" ry="3.48527" transform="rotate(13.6278 116.513 46.4692)" fill="#26FFCB" fill-opacity="0.36"/>
<ellipse cx="119.094" cy="35.8236" rx="2.20959" ry="3.48527" transform="rotate(13.6278 119.094 35.8236)" fill="#26FFCB" fill-opacity="0.36"/>
<ellipse cx="113.932" cy="57.1144" rx="2.20959" ry="3.48527" transform="rotate(13.6278 113.932 57.1144)" fill="#26FFCB" fill-opacity="0.36"/>
<ellipse cx="111.351" cy="67.7598" rx="2.20959" ry="3.48527" transform="rotate(13.6278 111.351 67.7598)" fill="#26FFCB" fill-opacity="0.36"/>
<ellipse cx="108.77" cy="78.4049" rx="2.20959" ry="3.48527" transform="rotate(13.6278 108.77 78.4049)" fill="#26FFCB" fill-opacity="0.36"/>
<ellipse cx="106.19" cy="89.0501" rx="2.20959" ry="3.48527" transform="rotate(13.6278 106.19 89.0501)" fill="#26FFCB" fill-opacity="0.36"/>
<ellipse cx="103.609" cy="99.6957" rx="2.20959" ry="3.48527" transform="rotate(13.6278 103.609 99.6957)" fill="#26FFCB" fill-opacity="0.36"/>
<ellipse cx="101.028" cy="110.341" rx="2.20959" ry="3.48527" transform="rotate(13.6278 101.028 110.341)" fill="#26FFCB" fill-opacity="0.36"/>
<ellipse cx="98.447" cy="120.986" rx="2.20959" ry="3.48527" transform="rotate(13.6278 98.447 120.986)" fill="#26FFCB" fill-opacity="0.36"/>
<ellipse cx="95.8661" cy="131.631" rx="2.20959" ry="3.48527" transform="rotate(13.6278 95.8661 131.631)" fill="#26FFCB" fill-opacity="0.36"/>
<ellipse cx="93.2853" cy="142.277" rx="2.20959" ry="3.48527" transform="rotate(13.6278 93.2853 142.277)" fill="#26FFCB" fill-opacity="0.36"/>
<ellipse cx="90.7045" cy="152.922" rx="2.20959" ry="3.48527" transform="rotate(13.6278 90.7045 152.922)" fill="#26FFCB" fill-opacity="0.36"/>
<ellipse cx="124.489" cy="48.4029" rx="2.20959" ry="3.48527" transform="rotate(13.6278 124.489 48.4029)" fill="#26FFCB" fill-opacity="0.36"/>
<ellipse cx="121.908" cy="59.048" rx="2.20959" ry="3.48527" transform="rotate(13.6278 121.908 59.048)" fill="#26FFCB" fill-opacity="0.36"/>
<ellipse cx="119.327" cy="69.6934" rx="2.20959" ry="3.48527" transform="rotate(13.6278 119.327 69.6934)" fill="#26FFCB" fill-opacity="0.36"/>
<ellipse cx="116.746" cy="80.3388" rx="2.20959" ry="3.48527" transform="rotate(13.6278 116.746 80.3388)" fill="#26FFCB" fill-opacity="0.36"/>
<ellipse cx="114.165" cy="90.9842" rx="2.20959" ry="3.48527" transform="rotate(13.6278 114.165 90.9842)" fill="#26FFCB" fill-opacity="0.36"/>
<ellipse cx="111.585" cy="101.629" rx="2.20959" ry="3.48527" transform="rotate(13.6278 111.585 101.629)" fill="#26FFCB" fill-opacity="0.36"/>
<ellipse cx="109.004" cy="112.274" rx="2.20959" ry="3.48527" transform="rotate(13.6278 109.004 112.274)" fill="#26FFCB" fill-opacity="0.36"/>
<ellipse cx="106.423" cy="122.92" rx="2.20959" ry="3.48527" transform="rotate(13.6278 106.423 122.92)" fill="#26FFCB" fill-opacity="0.36"/>
<ellipse cx="103.842" cy="133.565" rx="2.20959" ry="3.48527" transform="rotate(13.6278 103.842 133.565)" fill="#26FFCB" fill-opacity="0.36"/>
<ellipse cx="101.261" cy="144.211" rx="2.20959" ry="3.48527" transform="rotate(13.6278 101.261 144.211)" fill="#26FFCB" fill-opacity="0.36"/>
<ellipse cx="98.6805" cy="154.856" rx="2.20959" ry="3.48527" transform="rotate(13.6278 98.6805 154.856)" fill="#26FFCB" fill-opacity="0.36"/>
<ellipse cx="124.722" cy="82.2724" rx="2.20959" ry="3.48527" transform="rotate(13.6278 124.722 82.2724)" fill="#26FFCB" fill-opacity="0.36"/>
<ellipse cx="122.141" cy="92.9175" rx="2.20959" ry="3.48527" transform="rotate(13.6278 122.141 92.9175)" fill="#26FFCB" fill-opacity="0.36"/>
<ellipse cx="119.561" cy="103.563" rx="2.20959" ry="3.48527" transform="rotate(13.6278 119.561 103.563)" fill="#26FFCB" fill-opacity="0.36"/>
<ellipse cx="116.98" cy="114.209" rx="2.20959" ry="3.48527" transform="rotate(13.6278 116.98 114.209)" fill="#26FFCB" fill-opacity="0.36"/>
<ellipse cx="114.399" cy="124.854" rx="2.20959" ry="3.48527" transform="rotate(13.6278 114.399 124.854)" fill="#26FFCB" fill-opacity="0.36"/>
<ellipse cx="111.818" cy="135.499" rx="2.20959" ry="3.48527" transform="rotate(13.6278 111.818 135.499)" fill="#26FFCB" fill-opacity="0.36"/>
<ellipse cx="109.237" cy="146.144" rx="2.20959" ry="3.48527" transform="rotate(13.6278 109.237 146.144)" fill="#26FFCB" fill-opacity="0.36"/>
<ellipse cx="106.656" cy="156.79" rx="2.20959" ry="3.48527" transform="rotate(13.6278 106.656 156.79)" fill="#26FFCB" fill-opacity="0.36"/>
<ellipse cx="124.956" cy="116.142" rx="2.20959" ry="3.48527" transform="rotate(13.6278 124.956 116.142)" fill="#26FFCB" fill-opacity="0.36"/>
<ellipse cx="122.375" cy="126.787" rx="2.20959" ry="3.48527" transform="rotate(13.6278 122.375 126.787)" fill="#26FFCB" fill-opacity="0.36"/>
<ellipse cx="119.794" cy="137.433" rx="2.20959" ry="3.48527" transform="rotate(13.6278 119.794 137.433)" fill="#26FFCB" fill-opacity="0.36"/>
<ellipse cx="117.213" cy="148.078" rx="2.20959" ry="3.48527" transform="rotate(13.6278 117.213 148.078)" fill="#26FFCB" fill-opacity="0.36"/>
<ellipse cx="114.632" cy="158.723" rx="2.20959" ry="3.48527" transform="rotate(13.6278 114.632 158.723)" fill="#26FFCB" fill-opacity="0.36"/>
<ellipse cx="125.189" cy="150.012" rx="2.20959" ry="3.48527" transform="rotate(13.6278 125.189 150.012)" fill="#26FFCB" fill-opacity="0.36"/>
<ellipse cx="122.608" cy="160.657" rx="2.20959" ry="3.48527" transform="rotate(13.6278 122.608 160.657)" fill="#26FFCB" fill-opacity="0.36"/>
</svg>
